<svg width="30" height="10" viewBox="0 0 30 10" fill="none" xmlns="http://www.w3.org/2000/svg">
<path d="M4.5577 9.5C2.22274 9.5 0.5 8.10714 0.5 5.50893V0.5H1.96647V5.50893C1.96647 7.35714 3.10547 8.24107 4.5577 8.24107C6.02417 8.24107 7.14894 7.35714 7.14894 5.50893V0.5H8.62964V5.50893C8.62964 8.10714 6.9069 9.5 4.5577 9.5Z" fill="white"/>
<path d="M14.1237 0.5H15.5617L19.6051 9.33929H18.0675L17.1136 7.23661H12.5718L11.6179 9.33929H10.0802L14.1237 0.5ZM13.1128 6.04464H16.5725L14.864 2.29464H14.8071L13.1128 6.04464Z" fill="white"/>
<path d="M21.3134 0.5H22.7799V4.10268H28.0335V0.5H29.5V9.33929H28.0335V5.375H22.7799V9.33929H21.3134V0.5Z" fill="white"/>
</svg>
