<svg width="11" height="13" viewBox="0 0 11 13" fill="none" xmlns="http://www.w3.org/2000/svg">
<path d="M4.15565 8.80723L4.1397 8.82753H3.79669L3.98016 8.36079L4.15565 8.80723Z" fill="#4D5DDF"/>
<path d="M4.70206 4.23318C4.88951 4.23318 4.98125 4.13983 4.98125 3.94096V2.69091C4.98125 2.49204 4.88951 2.39869 4.70206 2.39869H4.39495V4.23318H4.70206Z" fill="#4D5DDF"/>
<path fill-rule="evenodd" clip-rule="evenodd" d="M0.997099 0H10.0029C10.7328 0 11 0.275985 11 1.01871V9.98418C11 10.0694 10.996 10.1465 10.988 10.2196C10.9868 10.2318 10.9857 10.2441 10.9846 10.2563C10.9707 10.406 10.9569 10.5537 10.8205 10.7188C10.8046 10.7391 10.653 10.8527 10.653 10.8527C10.6347 10.862 10.6177 10.8709 10.6012 10.8795C10.5458 10.9084 10.4964 10.9341 10.4257 10.9623L5.99456 12.8536C5.76323 12.9632 5.66751 13.0038 5.5 12.9997C5.33449 13.0037 5.23907 12.9602 5.01368 12.8574L5.00544 12.8536L0.574329 10.9623C0.482605 10.9217 0.426769 10.8933 0.347013 10.8527C0.347013 10.8527 0.195431 10.735 0.179478 10.7188C0.0430634 10.5537 0.0293424 10.406 0.0154455 10.2563C0.014309 10.2441 0.0131713 10.2319 0.0119652 10.2196C0.0039884 10.1465 0 10.0694 0 9.98418V1.01871C0 0.275985 0.271211 0 0.997099 0ZM9.39242 9.03452L9.3964 9.01422L9.42432 9.03858V8.98987L9.42033 8.96552L9.40039 8.86405L9.39242 8.84376L9.38444 8.82753L9.37247 8.80723L9.36051 8.791L9.34854 8.77071L9.33658 8.75447L9.27276 8.68954L9.2249 8.65301L9.16508 8.61648L9.14513 8.60836L9.12519 8.59619L9.10126 8.58807L9.08132 8.58401L8.98161 8.54342L8.96167 8.53937L8.93774 8.53125L8.9178 8.52313L8.89387 8.51907L8.82207 8.49472L8.80213 8.49066L8.78219 8.48255L8.76225 8.47849L8.74629 8.47037L8.73034 8.46631L8.68248 8.45008L8.66254 8.44196L8.64658 8.42978L8.62664 8.41761L8.61069 8.40137L8.60271 8.3892L8.59474 8.36485L8.59075 8.33644V8.33238L8.59474 8.31208L8.60271 8.29179L8.61468 8.2715L8.63462 8.25526L8.66653 8.23903L8.70641 8.23091L8.73034 8.22685H8.77421L8.85398 8.24309L8.86595 8.23497L8.88589 8.23903L8.92577 8.25526L8.9497 8.26338L8.96566 8.2715L8.9856 8.27962L9.00155 8.28773L9.02149 8.29585L9.03745 8.30397L9.05739 8.31208L9.07334 8.32426L9.09329 8.33238L9.12519 8.35673L9.14513 8.36891L9.16109 8.38108L9.17305 8.36485L9.21294 8.27556L9.23687 8.24309L9.24883 8.2228L9.33259 8.10915L9.34455 8.08886L9.39242 8.02392L9.3286 7.97522L9.30866 7.96304L9.29271 7.95087L9.25282 7.92652L9.23687 7.9184L9.21693 7.90622L9.11722 7.86564L9.09727 7.86158L9.05739 7.84534L8.95768 7.82505L8.93375 7.82099L8.91381 7.81693L8.88988 7.81288H8.86994L8.82207 7.80476H8.73433L8.57479 7.83723L8.55884 7.84129L8.47907 7.87375L8.45913 7.88593L8.43919 7.89405L8.41925 7.90622L8.35543 7.95493L8.29162 8.01986L8.26769 8.05233L8.24376 8.09292L8.21983 8.1538L8.21584 8.17409L8.20786 8.19438L8.18792 8.29585V8.34455L8.19191 8.36891L8.20786 8.45008L8.21584 8.46631L8.21983 8.4866L8.23578 8.51907L8.24774 8.53937L8.29561 8.6043L8.32751 8.63677L8.37537 8.6733L8.39532 8.68548L8.41127 8.69765L8.45115 8.722L8.51098 8.74636L8.53491 8.75447L8.59474 8.77882L8.61468 8.78288L8.65456 8.79912L8.6745 8.80318L8.69445 8.81129L8.71439 8.81535L8.73832 8.82347L8.75826 8.82753L8.78219 8.83564L8.80213 8.8397L8.82207 8.84782L8.84202 8.85188L8.86196 8.86L8.89387 8.86811L8.9178 8.88029L8.95768 8.89652L8.97363 8.90464L9.00554 8.92899L9.01751 8.94523L9.02548 8.96552L9.02947 8.98987V8.99393L9.02548 9.01422L9.01751 9.03452L9.00953 9.05075L8.99756 9.06699L8.98161 9.07916L8.9497 9.0954L8.88988 9.10757L8.86595 9.11163H8.82207L8.79814 9.10757H8.7782L8.75826 9.10351L8.73433 9.09945L8.6745 9.08728L8.51497 9.02234L8.49901 9.01017L8.47907 9.00205L8.46312 8.98987L8.44318 8.9777L8.42722 8.96552L8.40728 8.95334L8.39133 8.94117L8.37139 8.92899L8.35543 8.91682L8.34347 8.93305L8.32751 8.94929L8.31555 8.96552L8.29959 8.98175L8.27566 9.01422L8.25971 9.03046L8.24774 9.04669L8.23179 9.06293L8.21983 9.07916L8.20387 9.0954L8.17994 9.12786L8.16399 9.1441L8.15202 9.16033L8.13607 9.17657L8.1241 9.1928L8.14006 9.20904L8.25173 9.29427L8.27168 9.30644L8.28763 9.31862L8.30757 9.33079L8.50699 9.41197L8.52693 9.41603L8.54688 9.42414L8.66653 9.44849L8.69046 9.45255L8.73034 9.46067H8.75427L8.77421 9.46473H8.85398L8.87392 9.46067L8.89785 9.45661L8.97762 9.44038L9.01352 9.43226L9.03346 9.4282L9.0534 9.42008V9.42414L9.11323 9.39979L9.13317 9.38762L9.15311 9.3795L9.17305 9.36732L9.18901 9.35515L9.20496 9.34703L9.23687 9.32268L9.28074 9.27803L9.34057 9.19686L9.34854 9.17657L9.35652 9.16033L9.37247 9.11975L9.37646 9.09945L9.38444 9.07916L9.38843 9.05887L9.39242 9.03452ZM6.8199 9.4282H8.00047V9.08728H7.20677V8.83159H7.90873V8.51096H7.20677V8.26338H7.9885V7.92246H6.8199V9.4282ZM6.12991 9.4282H6.50083L6.59256 9.42414V7.9184H6.17777L6.1658 7.93463L6.15384 7.95493L6.14187 7.97116L6.12991 7.99145L6.11794 8.00769L6.10598 8.02798L6.09401 8.04422L6.08205 8.06451L6.07008 8.08074L6.0621 8.09698L6.05014 8.11727L6.03817 8.1335L6.02621 8.1538L6.01424 8.17003L6.00228 8.19033L5.97835 8.2228L5.96638 8.24309L5.95442 8.25932L5.94245 8.27962L5.93049 8.29585L5.91852 8.31614L5.90656 8.33238L5.89459 8.35267L5.88661 8.36891L5.87465 8.38514L5.86268 8.40543L5.85072 8.42167L5.83875 8.44196L5.82679 8.45819L5.81482 8.47849L5.80286 8.49472L5.79089 8.51501L5.77893 8.53125L5.76696 8.51501L5.755 8.49472L5.74303 8.47849L5.73505 8.45819L5.72309 8.44196L5.71112 8.42167L5.69916 8.40543L5.68719 8.38514L5.67922 8.36891L5.66725 8.35267L5.65927 8.33238L5.64731 8.31614L5.63534 8.29585L5.62338 8.27962L5.61141 8.25932L5.59945 8.24309L5.58748 8.2228L5.56355 8.19033L5.55159 8.17003L5.53962 8.1538L5.52766 8.1335L5.51569 8.11727L5.50373 8.09698L5.4798 8.06451L5.46783 8.04422L5.45587 8.02798L5.4439 8.00769L5.43194 7.99145L5.41997 7.97116L5.40801 7.95493L5.39604 7.93463L5.38408 7.9184H4.96928V9.42414H5.35217V8.53937L5.36413 8.5556L5.3761 8.57589L5.38806 8.59213L5.40003 8.61242L5.41199 8.62866L5.42396 8.64895L5.43194 8.66112L5.4439 8.68142L5.45587 8.69765L5.46783 8.71795L5.4798 8.73418L5.49176 8.75447L5.50373 8.77071L5.5117 8.78288L5.52367 8.79912L5.53563 8.81941L5.5476 8.83564L5.55957 8.85594L5.57153 8.87217L5.5835 8.89247L5.56355 8.91276L5.57552 8.93305L5.58748 8.94929L5.59945 8.96958L5.60743 8.98581L5.61939 9.00611L5.63136 9.02234L5.64332 9.04263L5.65529 9.05887L5.66725 9.07916L5.67922 9.0954L5.69118 9.11569L5.70315 9.13192L5.71511 9.15222H5.72309L5.73505 9.13598L5.74702 9.11569L5.77095 9.08322L5.77893 9.06293L5.80286 9.03046L5.81482 9.01017L5.82679 8.99393L5.83476 8.9777L5.84673 8.96146L5.85869 8.94117L5.88263 8.9087L5.89459 8.88841L5.90656 8.87217L5.91453 8.85594L5.9265 8.83564L5.95043 8.80318L5.96239 8.78288L5.98632 8.75041L5.99829 8.73012L6.03418 8.68142L6.04615 8.66112L6.07008 8.62866L6.08205 8.60836L6.10598 8.57589L6.11794 8.5556L6.12991 8.53937V9.4282ZM4.39495 9.4282H4.7898L4.82969 9.44444L4.81373 9.40791L4.4468 8.47443L4.43085 8.4379L4.19154 7.82911H3.81664L3.80866 7.8494L3.7927 7.88593L3.72889 8.04827L3.7249 8.06857L3.64513 8.2715L3.62918 8.30803L3.37392 8.9574L3.35797 8.99393L3.27022 9.21715L3.26225 9.22933L3.23832 9.29021L3.22236 9.32674L3.20641 9.36732L3.19046 9.40385L3.18248 9.42414H3.58132L3.64513 9.2618L3.66109 9.22527L3.70097 9.12381H4.2753L4.39495 9.4282ZM3.01896 9.23339L3.03092 9.22527V8.55154H2.37284V8.85188H2.66798V9.05481L2.65202 9.06699L2.63607 9.0751L2.61613 9.08322L2.60017 9.09134L2.58023 9.09945L2.48052 9.11975L2.43266 9.12786H2.39677L2.37284 9.12381L2.31301 9.11163L2.2133 9.07104L2.13353 9.01017L2.12157 8.99393L2.10561 8.9777L2.08168 8.94523L2.06174 8.91276L2.04978 8.89247L2.03382 8.85188L2.00989 8.86L2.00191 8.8397L1.98995 8.77882V8.62866L1.99394 8.6043L2.00191 8.56372L2.03382 8.48255L2.04579 8.46631L2.05376 8.44602L2.08966 8.39732L2.10561 8.38108L2.11758 8.36485L2.2133 8.29179L2.23324 8.28367L2.2492 8.23497L2.28908 8.21874L2.36885 8.2025H2.41272L2.46058 8.21062L2.54035 8.22685L2.58023 8.24309L2.62809 8.26744L2.64803 8.27962L2.7278 8.34049L2.74376 8.35673L2.75971 8.36891L2.77168 8.35267L2.78763 8.33644L2.79959 8.3202L2.81555 8.30397L2.83948 8.2715L2.85543 8.25526L2.8674 8.23903L2.88335 8.2228L2.90728 8.19033L2.92323 8.17409L2.94716 8.14162L2.96312 8.12539L2.97508 8.10915L2.99104 8.09292L3.003 8.07668L2.98705 8.06451L2.9711 8.04827L2.90728 7.99957L2.88734 7.98739L2.87139 7.97522L2.85144 7.96304L2.83549 7.95087L2.81555 7.94275L2.79561 7.93057L2.77566 7.92246L2.73977 7.90622L2.71983 7.89811L2.70387 7.88999L2.68393 7.88593L2.66399 7.87781L2.54434 7.85346L2.52041 7.8494L2.50046 7.84534H2.48052L2.43266 7.83723H2.34891L2.20931 7.86564L2.18937 7.87375L2.16943 7.87781L2.14949 7.88593L2.12954 7.88999L2.08966 7.90622L2.07371 7.91434L2.05376 7.92652L2.01388 7.94275L1.95405 7.97928L1.85833 8.05233L1.84238 8.06857L1.82642 8.08074L1.79452 8.11321L1.78255 8.12945L1.7666 8.14568L1.69481 8.24309L1.68683 8.25932L1.67487 8.27556L1.6629 8.29585L1.59909 8.45819L1.5951 8.47849L1.58712 8.49878L1.57516 8.55966L1.57117 8.58401V8.75853L1.57516 8.77882V8.79912L1.57914 8.81941V8.8397L1.58313 8.86L1.59111 8.88029L1.5951 8.90058L1.60307 8.92088L1.60706 8.94117L1.61504 8.96146L1.62302 8.9777L1.65492 9.05887L1.66689 9.0751L1.67885 9.0954L1.68683 9.11163L1.75862 9.20904L1.79053 9.24151L1.80648 9.25368L1.82244 9.26992L1.93411 9.35515L1.95405 9.36732L1.97001 9.37544L1.98995 9.38762L2.12954 9.44444L2.30902 9.48096L2.33295 9.48502L2.35289 9.48908H2.41671L2.44064 9.48502L2.46058 9.48096L2.48451 9.4769L2.50445 9.47285L2.52838 9.46879L2.62809 9.44849L2.80757 9.37544L2.82751 9.36326L2.84746 9.35515L2.90728 9.31862L3.01896 9.23339ZM3.24629 4.51728H2.36885V6.01897H3.29416V6.70893H1.62302V1.72902H3.28219V2.41898H2.36885V3.82732H3.24629V4.51728ZM8.64658 5.79169V4.66339H9.37247V5.82416C9.37247 6.44512 9.07334 6.74952 8.46711 6.74952H8.10017C7.49394 6.74952 7.19481 6.44512 7.19481 5.82416V2.60974C7.19481 1.98877 7.49394 1.68438 8.10017 1.68438H8.46312C9.06936 1.68438 9.36051 1.98471 9.36051 2.60162V3.62033H8.63063V2.64627C8.63063 2.44739 8.5389 2.35405 8.35144 2.35405H8.2278C8.03237 2.35405 7.94064 2.44739 7.94064 2.64627V5.79169C7.94064 5.99056 8.03237 6.08391 8.2278 6.08391H8.3674C8.55485 6.08391 8.64658 5.99056 8.64658 5.79169ZM6.80793 1.72902H6.0621V6.70893H6.80793V1.72902ZM3.65311 1.72902H4.82171C5.42795 1.72902 5.72708 2.03342 5.72708 2.65438V3.97749C5.72708 4.59846 5.42795 4.90285 4.82171 4.90285H4.39894V6.70893H3.65311V1.72902ZM7.64151 11.2099H3.37791L5.46783 11.9405L7.64151 11.2099Z" fill="#4D5DDF"/>
</svg>
