<svg width="13" height="13" viewBox="0 0 13 13" fill="none" xmlns="http://www.w3.org/2000/svg">
<path d="M6.48883 0C3.07131 0 0.268041 2.63095 0 5.98044L3.48454 7.41752C3.77491 7.21854 4.1323 7.09694 4.5232 7.09694C4.5567 7.09694 4.59021 7.09694 4.62371 7.09694L6.17612 4.85289V4.81973C6.17612 3.47109 7.28179 2.36565 8.63316 2.36565C9.98454 2.36565 11.0902 3.46003 11.0902 4.81973C11.0902 6.16837 9.98454 7.27381 8.63316 7.27381C8.61083 7.27381 8.59966 7.27381 8.57732 7.27381L6.36598 8.85459C6.36598 8.88775 6.36598 8.90987 6.36598 8.94303C6.36598 9.96004 5.53952 10.7781 4.5232 10.7781C3.62973 10.7781 2.88144 10.1369 2.71392 9.29677L0.223368 8.26871C0.993986 10.9992 3.50687 13 6.48883 13C10.0851 13 13 10.0927 13 6.5C12.9888 2.90731 10.0739 0 6.48883 0ZM4.07646 9.86055L3.27234 9.52891C3.41753 9.82738 3.66323 10.0706 3.98711 10.2032C4.69072 10.4906 5.50601 10.159 5.79639 9.46258C5.94158 9.1199 5.94158 8.74405 5.79639 8.40136C5.6512 8.05868 5.39433 7.79337 5.04811 7.64966C4.71306 7.50595 4.3445 7.51701 4.03179 7.63861L4.85825 7.98129C5.37199 8.20238 5.6177 8.78827 5.4055 9.30782C5.1933 9.83844 4.60137 10.0816 4.07646 9.86055ZM10.2637 4.81973C10.2637 3.92432 9.52663 3.18367 8.63316 3.18367C7.72852 3.18367 7.00258 3.91327 7.00258 4.81973C7.00258 5.71514 7.73969 6.45578 8.63316 6.45578C9.5378 6.45578 10.2637 5.72619 10.2637 4.81973ZM7.40464 4.81973C7.40464 4.14541 7.95189 3.59269 8.63316 3.59269C9.31443 3.59269 9.86168 4.14541 9.86168 4.81973C9.86168 5.49405 9.31443 6.04677 8.63316 6.04677C7.95189 6.04677 7.40464 5.49405 7.40464 4.81973Z" fill="#227BCE"/>
</svg>
