<svg width="13" height="13" viewBox="0 0 13 13" fill="none" xmlns="http://www.w3.org/2000/svg">
<path fill-rule="evenodd" clip-rule="evenodd" d="M13 8.43457H10.1906L9.74495 5.6709L8.1069 8.41412H7.79599C7.60934 8.09675 7.53682 7.63613 7.53682 7.3496C7.53682 6.87879 7.56785 6.4181 7.56785 5.81408C7.56785 5.01577 7.32944 4.59606 6.69693 4.44254V4.42208C8.03441 4.23778 8.64594 3.35737 8.64594 2.12901C8.64594 0.378796 7.46413 0 5.91944 0H1.76256L0 8.22982H2.20814L2.8509 5.23073H4.32308C5.111 5.23073 5.43236 5.60947 5.43236 6.33616C5.43236 6.88892 5.37015 7.3291 5.37015 7.74882C5.37015 7.90233 5.40117 8.27073 5.51516 8.41412L7.11171 10.0827L5.73298 13L8.6771 11.27L10.8748 12.9386L10.4704 10.1851L13 8.43457ZM4.98659 3.6952H3.22425L3.64911 1.7095H5.28722C5.86769 1.7095 6.47929 1.86302 6.47929 2.55907C6.47929 3.44967 5.78477 3.6952 4.98659 3.6952ZM8.71861 10.7889L6.66594 11.9967L7.60934 10.0109L6.46897 8.8235H8.34531L9.52713 6.84794L9.84846 8.84395H11.7145L10.0351 10.0008L10.3357 12.0276L8.71861 10.7889Z" fill="#FCAF17"/>
</svg>
