<svg width="30" height="30" viewBox="0 0 30 30" fill="none" xmlns="http://www.w3.org/2000/svg">
<path fill-rule="evenodd" clip-rule="evenodd" d="M1.75736 1.75736C0 3.51472 0 6.34315 0 12V18C0 23.6569 0 26.4853 1.75736 28.2426C3.51472 30 6.34315 30 12 30H18C23.6569 30 26.4853 30 28.2426 28.2426C30 26.4853 30 23.6569 30 18V12C30 6.34315 30 3.51472 28.2426 1.75736C26.4853 0 23.6569 0 18 0H12C6.34315 0 3.51472 0 1.75736 1.75736ZM20.1747 16.4561C21.3418 15.8214 21.3418 14.1786 20.1747 13.5439L13.1281 9.71201C11.9939 9.09521 10.6 9.89803 10.6 11.1681L10.6 18.8319C10.6 20.102 11.9939 20.9048 13.1281 20.288L20.1747 16.4561Z" fill="white"/>
</svg>
