<svg width="12" height="12" viewBox="0 0 12 12" fill="none" xmlns="http://www.w3.org/2000/svg">
<circle cx="4.50049" cy="3" r="2" fill="white"/>
<ellipse cx="4.50049" cy="8.50049" rx="3.5" ry="2" fill="white"/>
<path d="M10.4998 8.50023C10.4998 9.32865 9.48204 10.0002 8.2394 10.0002C8.6055 9.60005 8.85724 9.09776 8.85724 8.50092C8.85724 7.9034 8.60492 7.40063 8.23812 7.00025C9.48076 7.00025 10.4998 7.6718 10.4998 8.50023Z" fill="white"/>
<path d="M8.99981 3.00037C8.99981 3.82879 8.32824 4.50037 7.49981 4.50037C7.31917 4.50037 7.14599 4.46843 6.9856 4.40991C7.22214 3.99386 7.35724 3.51261 7.35724 2.99981C7.35724 2.48738 7.22234 2.00647 6.98612 1.59063C7.14636 1.53223 7.31937 1.50037 7.49981 1.50037C8.32824 1.50037 8.99981 2.17194 8.99981 3.00037Z" fill="white"/>
</svg>
