<svg width="30" height="30" viewBox="0 0 30 30" fill="none" xmlns="http://www.w3.org/2000/svg">
<path d="M15 2.5C17.3065 2.5 19.1616 2.5 20.6751 2.60979L16.3733 9.06253H10.5017L14.8768 2.5H15Z" fill="white"/>
<path d="M4.33058 4.33058C5.89604 2.76512 8.27743 2.5384 12.6196 2.50556L8.24827 9.06253H2.63022C2.81429 6.85741 3.2585 5.40266 4.33058 4.33058Z" fill="white"/>
<path fill-rule="evenodd" clip-rule="evenodd" d="M2.5 15C2.5 13.4541 2.5 12.1109 2.53306 10.9375H27.4669C27.5 12.1109 27.5 13.4541 27.5 15C27.5 20.8926 27.5 23.8388 25.6694 25.6694C23.8388 27.5 20.8926 27.5 15 27.5C9.10744 27.5 6.16117 27.5 4.33058 25.6694C2.5 23.8388 2.5 20.8926 2.5 15ZM16.2675 15.7315C17.9225 16.7994 18.75 17.3333 18.75 18.125C18.75 18.9167 17.9225 19.4506 16.2675 20.5185C14.5898 21.6009 13.751 22.1422 13.1255 21.7448C12.5 21.3474 12.5 20.2733 12.5 18.125C12.5 15.9767 12.5 14.9026 13.1255 14.5052C13.751 14.1078 14.5898 14.6491 16.2675 15.7315Z" fill="white"/>
<path d="M27.3698 9.06253C27.1857 6.85741 26.7415 5.40266 25.6694 4.33058C24.9228 3.58393 23.9905 3.14182 22.7484 2.88003L18.6267 9.06253H27.3698Z" fill="white"/>
</svg>
