<svg width="67" height="67" viewBox="0 0 67 67" fill="none" xmlns="http://www.w3.org/2000/svg">
<path d="M50.2506 22.3334C50.2506 25.417 47.7509 27.9167 44.6673 27.9167C41.5837 27.9167 39.084 25.417 39.084 22.3334C39.084 19.2498 41.5837 16.75 44.6673 16.75C47.7509 16.75 50.2506 19.2498 50.2506 22.3334Z" fill="#777E96" fill-opacity="0.15"/>
<path fill-rule="evenodd" clip-rule="evenodd" d="M33.3405 3.48962H33.6608C40.1051 3.48959 45.1553 3.48956 49.0957 4.01933C53.1289 4.56159 56.3115 5.69316 58.8095 8.19117C61.3075 10.6892 62.4391 13.8717 62.9814 17.905C63.5111 21.8454 63.5111 26.8956 63.5111 33.3399V33.5863C63.5111 38.915 63.5111 43.2772 63.2217 46.829C62.9309 50.3982 62.3349 53.3807 61.001 55.8577C60.4127 56.9503 59.6897 57.9287 58.8095 58.8089C56.3115 61.3069 53.1289 62.4385 49.0957 62.9807C45.1553 63.5105 40.1051 63.5105 33.6608 63.5105H33.3405C26.8962 63.5105 21.846 63.5105 17.9056 62.9807C13.8724 62.4385 10.6898 61.3069 8.19178 58.8089C5.97721 56.5943 4.83358 53.838 4.22542 50.4187C3.628 47.0599 3.51872 42.8809 3.49601 37.6917C3.49023 36.3717 3.49023 34.9757 3.49023 33.5028V33.3399C3.4902 26.8956 3.49017 21.8454 4.01994 17.905C4.5622 13.8717 5.69377 10.6892 8.19178 8.19117C10.6898 5.69316 13.8724 4.56159 17.9056 4.01933C21.846 3.48956 26.8962 3.48959 33.3405 3.48962ZM18.4636 8.16949C14.8947 8.64932 12.7431 9.56189 11.1528 11.1522C9.5625 12.7425 8.64993 14.8941 8.1701 18.4629C7.68218 22.092 7.67774 26.8608 7.67774 33.5C7.67774 34.3111 7.67774 35.0954 7.67869 35.8548L10.4735 33.4093C13.0175 31.1834 16.8516 31.3111 19.2419 33.7013L31.2174 45.6768C33.1359 47.5953 36.1559 47.8569 38.3757 46.2968L39.2082 45.7118C42.4025 43.4669 46.7243 43.727 49.6263 46.3388L57.5279 53.4503C58.3234 51.7799 58.7957 49.5851 59.048 46.4889C59.322 43.1264 59.3236 38.9323 59.3236 33.5C59.3236 26.8608 59.3191 22.092 58.8312 18.4629C58.3514 14.8941 57.4388 12.7425 55.8485 11.1522C54.2582 9.56189 52.1066 8.64932 48.5377 8.16949C44.9086 7.68157 40.1399 7.67713 33.5006 7.67713C26.8614 7.67713 22.0927 7.68157 18.4636 8.16949Z" fill="#777E96" fill-opacity="0.15"/>
</svg>
