<svg width="19" height="19" viewBox="0 0 19 19" fill="none" xmlns="http://www.w3.org/2000/svg">
<path d="M14.8307 4.23868C14.3036 3.69916 13.6973 3.23923 13.0309 2.87829C11.0936 3.45657 9.61062 2.58746 9.02862 2C8.17109 2.05388 7.35258 2.25375 6.59702 2.57538C11.4423 5.95872 14.0484 5.14411 14.8307 4.23868Z" fill="white"/>
<path d="M2.24177 7.66267C2.73778 5.73377 3.96307 4.10315 5.60145 3.09118C7.87441 4.90996 12.7494 7.62354 15.5281 5.06206C15.884 5.54832 16.184 6.07914 16.4184 6.64476C16.3598 6.88774 16.2398 7.14702 16.0369 7.41807C15.6918 7.90103 14.5611 8.86696 12.7981 8.86696C12.0636 8.83326 10.0803 8.53001 8.02354 7.58654C6.78636 6.94038 3.94281 6.08062 2.24177 7.66267Z" fill="white"/>
<path d="M2.35268 11.8933C2.12362 11.165 2 10.389 2 9.5838C2 9.4195 2.00515 9.25641 2.01529 9.0947C2.39292 8.44317 3.44783 7.66245 5.61955 8.19306C8.61751 9.67315 14.9216 11.651 16.8654 8.14302C16.9537 8.60952 17 9.09118 17 9.5838C17 9.68081 16.9982 9.7774 16.9946 9.87353C16.8201 10.4006 16.5038 10.9534 15.9701 11.4615C15.1687 12.2477 12.6446 13.4697 8.95843 12.068C7.28899 11.2481 3.63625 10.0665 2.38083 11.8995C2.3719 11.8989 2.36249 11.8969 2.35268 11.8933Z" fill="white"/>
<path d="M5.06427 15.7116C4.05401 14.9597 3.2365 13.9575 2.70078 12.7952C3.24509 12.2232 4.8069 11.6589 7.65626 13.1462C9.70705 14.0626 14.1093 15.0036 16.5568 12.1633C16.194 13.1819 15.6225 14.0993 14.8946 14.8627C13.8758 15.3225 12.3675 15.8451 10.5945 16.0777C9.87105 16.0665 8.12371 15.9564 6.92171 15.606C6.5865 15.5463 5.79716 15.4972 5.06427 15.7116Z" fill="white"/>
<path d="M13.9879 15.6724C13.1903 16.2768 12.27 16.7242 11.2717 16.9691C11.1708 16.9812 11.0675 16.9915 10.9618 17C9.87105 17 7.53606 16.8652 6.92171 16.3261C8.39258 16.6694 11.6554 16.951 13.9879 15.6724Z" fill="white"/>
<path d="M10.4553 2.0463C10.4155 2.0458 10.3794 2.04622 10.3477 2.04736C10.9353 2.50561 11.6165 2.4854 11.8836 2.41801C11.8336 2.38436 11.7807 2.35358 11.7258 2.32544C11.3162 2.19667 10.8916 2.10249 10.4553 2.0463Z" fill="white"/>
</svg>
