<svg width="19" height="19" viewBox="0 0 19 19" fill="none" xmlns="http://www.w3.org/2000/svg">
<path fill-rule="evenodd" clip-rule="evenodd" d="M1.99502 6.19317C1.58398 6.94409 1.58398 7.84993 1.58398 9.6616V10.8658C1.58398 13.954 1.58398 15.4981 2.51148 16.4574C3.43897 17.4168 4.93176 17.4168 7.91732 17.4168H11.084C14.0695 17.4168 15.5623 17.4168 16.4898 16.4574C17.4173 15.4981 17.4173 13.954 17.4173 10.8658V9.6616C17.4173 7.84993 17.4173 6.94409 17.0063 6.19317C16.5952 5.44224 15.8443 4.97619 14.3425 4.04409L12.7591 3.06143C11.1716 2.07614 10.3778 1.5835 9.50065 1.5835C8.62353 1.5835 7.82975 2.07614 6.24218 3.06144L4.65884 4.0441C3.15698 4.97619 2.40605 5.44224 1.99502 6.19317ZM8.9069 14.2502C8.9069 14.5781 9.17273 14.8439 9.50065 14.8439C9.82857 14.8439 10.0944 14.5781 10.0944 14.2502V11.8752C10.0944 11.5472 9.82857 11.2814 9.50065 11.2814C9.17273 11.2814 8.9069 11.5472 8.9069 11.8752V14.2502Z" fill="#F8F8F8"/>
</svg>
