<svg width="19" height="19" viewBox="0 0 19 19" fill="none" xmlns="http://www.w3.org/2000/svg">
<path d="M15.3208 6.03001L12.1867 3.20938C11.2938 2.40578 10.8474 2.00398 10.2996 1.79378L10.2923 3.95858C10.2923 5.82456 10.2923 6.75754 10.872 7.33723C11.4517 7.91691 12.3847 7.91691 14.2507 7.91691H17.0849C16.7979 7.3594 16.2839 6.89688 15.3208 6.03001Z" fill="white"/>
<path fill-rule="evenodd" clip-rule="evenodd" d="M7.91732 17.4168H11.084C14.0695 17.4168 15.5623 17.4168 16.4898 16.4893C17.4173 15.5618 17.4173 14.0691 17.4173 11.0835V10.7375C17.4173 10.0465 17.4173 9.52737 17.3836 9.10441H14.2507L14.1756 9.10442C13.307 9.10449 12.5394 9.10455 11.9207 9.02136C11.2501 8.9312 10.5796 8.72417 10.0323 8.17692C9.48506 7.62966 9.27803 6.95913 9.18787 6.2885C9.10468 5.6698 9.10475 4.90222 9.10481 4.03368L9.11213 1.78978C9.11235 1.72451 9.11793 1.65997 9.12857 1.59669C8.80509 1.5835 8.42066 1.5835 7.9409 1.5835C4.93962 1.5835 3.43897 1.5835 2.51148 2.51099C1.58398 3.43849 1.58398 4.93127 1.58398 7.91683V11.0835C1.58398 14.0691 1.58398 15.5618 2.51148 16.4893C3.43897 17.4168 4.93176 17.4168 7.91732 17.4168ZM6.32373 15.0792C6.55212 15.2933 6.90752 15.2933 7.13591 15.0792L8.71924 13.5948C8.95847 13.3705 8.97059 12.9948 8.74631 12.7555C8.52204 12.5163 8.14629 12.5042 7.90706 12.7285L7.32357 13.2755L7.32357 10.6877C7.32357 10.3597 7.05774 10.0939 6.72982 10.0939C6.4019 10.0939 6.13607 10.3597 6.13607 10.6877V13.2755L5.55257 12.7285C5.31335 12.5042 4.9376 12.5163 4.71332 12.7555C4.48904 12.9948 4.50117 13.3705 4.74039 13.5948L6.32373 15.0792Z" fill="white"/>
</svg>
