<svg width="19" height="19" viewBox="0 0 19 19" fill="none" xmlns="http://www.w3.org/2000/svg">
<path d="M10.6379 14.4687C11.4201 12.9946 14.0276 12.9946 14.0276 12.9946C16.7446 12.9662 17.1116 11.3166 17.357 10.4828C16.9178 14.0305 14.1314 16.8507 10.5999 17.3413C10.3445 16.8038 10.0419 15.5917 10.6379 14.4687Z" fill="#F8F8F8"/>
<path d="M3.96375 4.61866L3.63787 4.33995C3.61074 4.31674 3.58479 4.29244 3.56007 4.26713C2.33014 5.66227 1.58398 7.49408 1.58398 9.50016C1.58398 13.8233 5.04917 17.337 9.35354 17.4155C9.07378 16.5805 8.89126 15.2271 9.58897 13.9123C10.2303 12.7036 11.5207 12.2279 12.3427 12.0258C12.7914 11.9156 13.2039 11.8618 13.5019 11.835C13.6523 11.8215 13.7771 11.8146 13.8672 11.8111C13.9123 11.8093 13.949 11.8083 13.976 11.8078L14.0094 11.8073L14.0182 11.8073C15.1114 11.7953 15.5356 11.4727 15.7314 11.2523C15.9735 10.9797 16.0685 10.6564 16.2007 10.2061L16.2178 10.1477C16.3747 9.61471 16.8755 9.27 17.4148 9.29674C17.365 7.32586 16.595 5.53394 15.3581 4.17435C15.3331 4.31503 15.3033 4.44582 15.2736 4.56161C15.1393 5.08535 14.9139 5.65041 14.6373 6.07018C14.3667 6.48098 13.8858 6.84804 13.5662 7.07768C13.325 7.25098 13.0785 7.39495 12.8754 7.51203L12.8025 7.554C12.619 7.65952 12.4732 7.74356 12.3344 7.83528C12.0525 8.02148 11.8835 8.18685 11.7689 8.41092C11.8386 8.66606 11.8881 8.95927 11.8889 9.26591C11.8908 9.99542 11.5174 10.5718 11.071 10.9316C10.6319 11.2855 10.0637 11.4855 9.48797 11.4793C7.1527 11.4538 5.78296 9.54872 5.60658 7.58559C5.5553 7.0148 5.29852 6.39979 4.9397 5.82673C4.59073 5.26942 4.19629 4.83308 3.96375 4.61866Z" fill="#F8F8F8"/>
<path d="M6.78932 7.47933C6.64107 5.82933 5.36862 4.29183 4.75093 3.72933L4.40971 3.43749C5.78609 2.28045 7.56212 1.5835 9.50093 1.5835C11.2532 1.5835 12.8725 2.15279 14.184 3.1165C14.3693 3.679 14.0163 4.85433 13.6457 5.41683C13.5115 5.62058 13.207 5.87352 12.8733 6.1133C12.1209 6.65393 11.1713 6.92134 10.6884 7.91683C10.5504 8.20139 10.5563 8.47957 10.6227 8.72137C10.6704 8.89521 10.7009 9.08416 10.7014 9.26897C10.7029 9.86662 10.0985 10.2984 9.50093 10.2918C7.94587 10.2749 6.92789 9.02163 6.78932 7.47933Z" fill="#F8F8F8"/>
</svg>
