<svg width="142" height="28" viewBox="0 0 142 28" fill="none" xmlns="http://www.w3.org/2000/svg">
<path d="M8.55052 13.65H15.9171V22.3125H13.1546L12.9354 19.9937C11.7953 21.6562 10.0414 22.5312 7.71739 22.5312C3.06942 22.5312 0 19.1625 0 14.0875C0 8.88125 3.33251 5.46875 8.50667 5.46875C11.883 5.46875 14.4263 7.04375 15.6102 9.84375L12.1461 11.1562C11.4884 9.58125 10.1729 8.61875 8.37512 8.61875C5.5688 8.61875 3.8587 10.675 3.8587 14C3.8587 17.3687 5.52495 19.3813 8.24358 19.3813C10.1729 19.3813 11.7515 18.3313 12.3215 16.2312H8.55052V13.65Z" fill="white"/>
<path d="M31.7308 5.6875V9.1H26.1181V22.3125H22.3471V9.1H16.7345V5.6875H31.7308Z" fill="white"/>
<path d="M43.5541 22.3125L42.3702 19.0312H35.0913L33.9074 22.3125H29.961L36.4506 5.6875H41.0986L47.5882 22.3125H43.5541ZM36.2752 15.7937H41.1863L38.7308 8.96875L36.2752 15.7937Z" fill="white"/>
<path d="M54.7637 11.3313C57.9208 11.3313 60.3325 13.6938 60.3325 16.8438C60.3325 20.2125 57.7015 22.5312 53.8428 22.5312C51.1681 22.5312 48.9756 21.3938 47.8355 19.5125L50.0718 17.6313C50.8173 18.8125 52.1766 19.6438 53.7113 19.6438C55.5968 19.6438 56.8684 18.5063 56.8684 16.7563C56.8684 15.0063 55.6845 13.8687 53.8867 13.8687C52.7466 13.8687 51.7819 14.35 51.1242 15.225L48.6248 14.3062L49.3703 5.6875H59.1485V8.8375H52.0889L51.7819 12.1188C52.5712 11.5938 53.5797 11.3313 54.7637 11.3313Z" fill="white"/>
<path d="M73.2959 22.3125L69.7442 16.1875H66.7186V22.3125H62.9915V5.6875H70.358C74.3044 5.6875 76.6284 7.6125 76.6284 10.8938C76.6284 13.2125 75.4884 14.875 73.4713 15.6625L77.5054 22.3125H73.2959ZM66.7186 8.8375V13.2562H70.095C71.8928 13.2562 72.8136 12.4688 72.8136 11.025C72.8136 9.58125 71.8928 8.8375 70.095 8.8375H66.7186Z" fill="white"/>
<path d="M86.8294 5.6875C90.8197 5.6875 93.1875 7.7 93.1875 11.025C93.1875 14.3938 90.8197 16.3625 86.8294 16.3625H83.4531V22.3125H79.7259V5.6875H86.8294ZM86.3909 13.3875C88.3203 13.3875 89.3727 12.6 89.3727 11.1125C89.3727 9.58125 88.3203 8.8375 86.3909 8.8375H83.4531V13.3875H86.3909Z" fill="white"/>
<path d="M96.8184 6.72C96.8184 3.00865 99.8338 0 103.554 0H134.984C138.704 0 141.72 3.00865 141.72 6.72V21.28C141.72 24.9914 138.704 28 134.984 28H103.554C99.8338 28 96.8184 24.9914 96.8184 21.28V6.72Z" fill="#E0350F"/>
<path d="M102.694 20.8512V17.3556H106.198V20.8512H102.694Z" fill="white"/>
<path d="M114.533 21.0372C110.582 21.0372 108.197 18.7316 108.197 15.1616V6.72H111.402V15.05C111.402 17.0581 112.52 18.2109 114.533 18.2109C116.546 18.2109 117.664 17.0581 117.664 15.05V6.72H120.869V15.1616C120.869 18.7316 118.484 21.0372 114.533 21.0372Z" fill="white"/>
<path d="M133.006 20.8512L132 18.0622H125.813L124.807 20.8512H121.452L126.968 6.72H130.919L136.435 20.8512H133.006ZM126.819 15.3103H130.994L128.906 9.50906L126.819 15.3103Z" fill="white"/>
</svg>
