<svg width="27" height="27" viewBox="0 0 27 27" fill="none" xmlns="http://www.w3.org/2000/svg">
<path d="M23.0383 4.08491C22.0951 3.11945 21.0101 2.29643 19.8176 1.65054C16.3509 2.68534 13.6971 1.13011 12.6557 0.0788574C11.1211 0.175273 9.65643 0.532941 8.30437 1.10849C16.9748 7.16288 21.6384 5.70516 23.0383 4.08491Z" fill="white"/>
<path d="M0.510774 10.2121C1.39836 6.76033 3.59099 3.84239 6.52283 2.03149C10.5902 5.28615 19.3139 10.142 24.2863 5.55834C24.9232 6.42848 25.46 7.37838 25.8794 8.39053C25.7746 8.82535 25.5598 9.28931 25.1967 9.77435C24.5793 10.6386 22.5558 12.3671 19.4011 12.3671C18.0866 12.3068 14.5376 11.7641 10.8571 10.0758C8.6432 8.91953 3.55474 7.38103 0.510774 10.2121Z" fill="white"/>
<path d="M0.709241 17.7826C0.299341 16.4793 0.078125 15.0908 0.078125 13.6499C0.078125 13.3559 0.0873358 13.064 0.105481 12.7746C0.781248 11.6087 2.66898 10.2117 6.55521 11.1612C11.92 13.8098 23.201 17.349 26.6793 11.0716C26.8374 11.9064 26.9202 12.7683 26.9202 13.6499C26.9202 13.8235 26.917 13.9963 26.9107 14.1683C26.5983 15.1115 26.0322 16.1007 25.0772 17.0099C23.6432 18.4169 19.1263 20.6036 12.53 18.0953C9.54263 16.6281 3.00615 14.5137 0.759614 17.7938C0.743632 17.7927 0.726795 17.7891 0.709241 17.7826Z" fill="white"/>
<path d="M5.56156 24.6154C3.75373 23.2698 2.29082 21.4765 1.33215 19.3966C2.30617 18.373 5.101 17.3632 10.1999 20.0248C13.8697 21.6646 21.7473 23.3484 26.1271 18.2659C25.4779 20.0885 24.4553 21.7302 23.1527 23.0963C21.3295 23.9191 18.6306 24.8543 15.4577 25.2706C14.1632 25.2505 11.0363 25.0535 8.8854 24.4264C8.28555 24.3196 6.87304 24.2317 5.56156 24.6154Z" fill="white"/>
<path d="M21.5302 24.5452C20.1029 25.6268 18.4561 26.4273 16.6696 26.8657C16.489 26.8873 16.3042 26.9058 16.115 26.921C14.1632 26.921 9.98477 26.6798 8.8854 25.715C11.5175 26.3294 17.3562 26.8333 21.5302 24.5452Z" fill="white"/>
<path d="M15.2087 0.161707C15.1374 0.16081 15.0728 0.161565 15.0161 0.163608C16.0677 0.98364 17.2866 0.947462 17.7645 0.826869C17.675 0.766654 17.5805 0.711572 17.4822 0.661229C16.7493 0.430788 15.9895 0.262268 15.2087 0.161707Z" fill="white"/>
</svg>
