<svg width="206" height="76" viewBox="0 0 206 76" fill="none" xmlns="http://www.w3.org/2000/svg">
<path d="M83.6508 43.0724C86.2516 43.0703 88.7659 42.1325 90.7403 40.4283C92.7146 38.7242 94.0189 36.3658 94.4178 33.7787C95.2591 28.386 91.0733 23.6783 85.1425 23.6783H75.5834C75.4041 23.676 75.23 23.739 75.0933 23.8557C74.9565 23.9725 74.8663 24.135 74.8392 24.3135L70.579 51.5345C70.5636 51.6339 70.5698 51.7355 70.597 51.8324C70.6243 51.9292 70.672 52.019 70.737 52.0955C70.8019 52.172 70.8826 52.2335 70.9733 52.2757C71.0641 52.3179 71.1628 52.3399 71.2628 52.3401H76.3211C76.5 52.3419 76.6736 52.2786 76.8099 52.162C76.9462 52.0453 77.0362 51.883 77.0632 51.7049L78.3164 43.7087C78.3432 43.5302 78.4332 43.3675 78.5697 43.2506C78.7063 43.1337 78.8803 43.0704 79.0595 43.0724H83.6508ZM87.8841 33.5333C87.5713 35.5267 86.0409 36.9957 83.1116 36.9957H79.3647L80.5004 29.7431H84.1793C87.21 29.7496 88.1947 31.5487 87.8841 33.5388V33.5333ZM116.334 32.2522H111.531C111.352 32.2501 111.178 32.3132 111.041 32.4299C110.904 32.5466 110.814 32.709 110.787 32.8873L110.631 33.8905C110.631 33.8905 106.903 29.792 100.304 32.5605C96.5188 34.1468 94.7026 37.4245 93.9304 39.824C93.9304 39.824 91.4745 47.1178 97.0257 51.1339C97.0257 51.1339 102.171 54.9947 107.967 50.895L107.867 51.5345C107.852 51.634 107.858 51.7356 107.885 51.8326C107.912 51.9295 107.96 52.0193 108.025 52.0959C108.09 52.1724 108.17 52.2339 108.261 52.2761C108.352 52.3182 108.451 52.3401 108.551 52.3401H113.352C113.531 52.3424 113.705 52.2794 113.842 52.1627C113.978 52.046 114.069 51.8834 114.096 51.7049L117.016 33.0578C117.032 32.9584 117.026 32.8567 116.998 32.7599C116.971 32.6631 116.923 32.5733 116.858 32.4968C116.793 32.4203 116.713 32.3588 116.622 32.3166C116.531 32.2744 116.434 32.2524 116.334 32.2522ZM109.272 42.5578C109.085 43.857 108.435 45.0436 107.444 45.8973C106.453 46.7511 105.188 47.214 103.884 47.2003C103.373 47.2062 102.865 47.1311 102.377 46.9777C100.307 46.3089 99.1256 44.3047 99.4654 42.1333C99.6535 40.8305 100.306 39.641 101.301 38.7866C102.296 37.9322 103.565 37.4713 104.873 37.4897C105.384 37.4843 105.893 37.5603 106.381 37.7133C108.444 38.38 109.618 40.3842 109.278 42.5578H109.272Z" fill="#5A5A5A"/>
<path d="M152.798 43.0724C155.4 43.0717 157.916 42.1347 159.892 40.4305C161.869 38.7262 163.174 36.3671 163.575 33.7787C164.415 28.386 160.23 23.6783 154.297 23.6783H144.741C144.562 23.6765 144.388 23.7397 144.252 23.8564C144.115 23.973 144.025 24.1353 143.998 24.3135L139.725 51.5421C139.7 51.6921 139.726 51.846 139.797 51.98C139.868 52.114 139.981 52.2207 140.119 52.2836C140.209 52.3263 140.308 52.3485 140.409 52.3488H145.468C145.647 52.3506 145.821 52.2872 145.958 52.1703C146.094 52.0534 146.184 51.8909 146.211 51.7125L147.466 43.7163C147.492 43.5377 147.582 43.3749 147.719 43.2579C147.855 43.141 148.029 43.0778 148.209 43.08L152.798 43.0724ZM157.031 33.5333C156.718 35.5267 155.188 36.9957 152.257 36.9957H148.512L149.648 29.7431H153.327C156.356 29.7496 157.343 31.5487 157.031 33.5388V33.5333ZM185.48 32.2522H180.682C180.503 32.2504 180.329 32.3136 180.193 32.4302C180.056 32.5469 179.966 32.7092 179.939 32.8873L179.782 33.8905C179.782 33.8905 176.054 29.792 169.456 32.5605C165.671 34.1468 163.854 37.4245 163.081 39.824C163.081 39.824 160.626 47.1178 166.176 51.1339C166.176 51.1339 171.323 54.9947 177.119 50.895L177.018 51.5345C176.994 51.6845 177.019 51.8384 177.09 51.9724C177.162 52.1064 177.275 52.2131 177.412 52.276C177.503 52.3195 177.602 52.3412 177.702 52.3412H182.503C182.682 52.3439 182.857 52.2808 182.993 52.1638C183.13 52.0468 183.22 51.8837 183.246 51.7049L186.168 33.0578C186.182 32.958 186.175 32.8563 186.148 32.7594C186.12 32.6624 186.073 32.5725 186.008 32.4954C185.943 32.4182 185.862 32.3563 185.771 32.3143C185.679 32.2722 185.58 32.251 185.48 32.2522ZM178.419 42.5578C178.234 43.858 177.585 45.0459 176.593 45.9C175.602 46.7542 174.336 47.2163 173.031 47.2003C172.52 47.2064 172.01 47.1313 171.522 46.9777C169.45 46.3089 168.268 44.3047 168.608 42.1333C168.796 40.8338 169.445 39.647 170.436 38.7931C171.427 37.9391 172.692 37.476 173.996 37.4897C174.509 37.4843 175.018 37.5592 175.505 37.7133C177.59 38.38 178.767 40.3842 178.425 42.5578H178.419Z" fill="white"/>
<path d="M133.959 32.7136L128.171 42.5491L125.234 32.7864C125.188 32.6314 125.093 32.4957 124.964 32.3994C124.835 32.3031 124.678 32.2515 124.518 32.2522H119.295C119.205 32.2505 119.116 32.2707 119.036 32.3113C118.955 32.3518 118.886 32.4115 118.833 32.485C118.78 32.5586 118.746 32.6439 118.734 32.7336C118.721 32.8234 118.73 32.9149 118.76 33.0003L124.024 49.4445L119.264 57.1943C119.21 57.2796 119.18 57.3779 119.177 57.4789C119.175 57.5799 119.199 57.6798 119.248 57.7681C119.296 57.8564 119.368 57.9298 119.455 57.9805C119.542 58.0312 119.64 58.0574 119.741 58.0564H125.367C125.528 58.0572 125.687 58.0158 125.827 57.9362C125.967 57.8566 126.084 57.7416 126.167 57.6025L140.869 33.1175C140.922 33.0321 140.951 32.9338 140.953 32.8331C140.956 32.7324 140.931 32.633 140.881 32.5454C140.832 32.4577 140.76 32.385 140.674 32.3349C140.587 32.2849 140.488 32.2593 140.388 32.2609H134.764C134.602 32.259 134.443 32.2998 134.301 32.3792C134.16 32.4587 134.042 32.574 133.959 32.7136Z" fill="#5A5A5A"/>
<path d="M190.881 24.3059L186.608 51.5345C186.583 51.6845 186.609 51.8384 186.68 51.9724C186.751 52.1064 186.864 52.2131 187.001 52.276C187.092 52.3195 187.191 52.3412 187.292 52.3412H192.349C192.528 52.3434 192.702 52.2802 192.839 52.1633C192.975 52.0463 193.065 51.8835 193.092 51.7049L197.366 24.4763C197.382 24.3769 197.376 24.2751 197.349 24.1781C197.322 24.0812 197.274 23.9914 197.209 23.915C197.144 23.8386 197.063 23.7772 196.972 23.7351C196.881 23.6929 196.782 23.671 196.682 23.6707H191.624C191.445 23.6689 191.271 23.7321 191.135 23.8488C190.998 23.9654 190.908 24.1277 190.881 24.3059Z" fill="white"/>
<path d="M56.241 36.1108C55.156 42.3374 50.1095 47.044 43.4873 47.044H39.2832C38.4258 47.044 37.5619 47.8431 37.4249 48.7268L35.5838 60.4905C35.4771 61.1604 35.1654 61.383 34.4913 61.383H27.7289C27.0451 61.383 26.8833 61.1528 26.9858 60.4743L27.7623 52.339L19.6453 51.9167C18.9626 51.9167 18.7156 51.5421 18.8126 50.8559L24.3509 15.5051C24.4577 14.8352 24.8718 14.5475 25.5438 14.5475H39.5895C46.3509 14.5475 50.6283 19.1292 51.1514 25.0702C55.1743 27.8062 57.0553 31.4466 56.2421 36.1097L56.241 36.1108Z" fill="#A9A9A9"/>
<path d="M29.8202 39.1671L27.7634 52.3401L26.4627 60.6045C26.4385 60.7639 26.4487 60.9266 26.4926 61.0816C26.5365 61.2366 26.613 61.3803 26.717 61.5029C26.821 61.6255 26.9499 61.7241 27.0951 61.792C27.2403 61.8599 27.3984 61.8956 27.5585 61.8965H34.7005C35.0265 61.8962 35.3417 61.7788 35.5894 61.5654C35.8371 61.3521 36.0011 61.0568 36.0519 60.7327L37.9318 48.7247C37.9829 48.4007 38.147 48.1057 38.3947 47.8926C38.6423 47.6794 38.9574 47.5622 39.2832 47.5619H43.4873C46.6909 47.5576 49.7875 46.4015 52.2191 44.302C54.6507 42.2024 56.2572 39.2975 56.749 36.1108C57.477 31.4347 55.1398 27.1776 51.1395 25.0745C51.1305 25.5728 51.0873 26.0698 51.0101 26.562C50.5165 29.7469 48.9094 32.6498 46.4782 34.7478C44.0471 36.8458 40.9517 38.001 37.7495 38.0054H31.1705C30.8449 38.0055 30.53 38.1226 30.2825 38.3355C30.0349 38.5485 29.871 38.8434 29.8202 39.1671Z" fill="white"/>
<path d="M27.7623 52.3401H19.4457C19.2853 52.3393 19.1269 52.3037 18.9813 52.2357C18.8358 52.1677 18.7065 52.069 18.6023 51.9462C18.4981 51.8233 18.4214 51.6793 18.3775 51.524C18.3336 51.3686 18.3234 51.2056 18.3478 51.0459L23.9518 15.2781C24.0022 14.954 24.1659 14.6586 24.4135 14.4452C24.6611 14.2318 24.9762 14.1145 25.3021 14.1143H39.5819C46.3433 14.1143 51.2592 19.0673 51.1438 25.068C49.3442 24.1334 47.3457 23.6539 45.3208 23.6707H33.416C33.0899 23.6708 32.7746 23.7879 32.5267 24.0011C32.2788 24.2142 32.1146 24.5094 32.0635 24.8335L29.8202 39.1671L27.7623 52.3401Z" fill="#5A5A5A"/>
</svg>
