<svg width="50" height="51" viewBox="0 0 50 51" fill="none" xmlns="http://www.w3.org/2000/svg">
<path d="M29.1667 8.83337H20.8334C12.9766 8.83337 9.04824 8.83337 6.60746 11.2742C4.85009 13.0315 4.35803 15.5601 4.22026 19.7709H45.7798C45.642 15.5601 45.15 13.0315 43.3926 11.2742C40.9518 8.83337 37.0234 8.83337 29.1667 8.83337Z" fill="white"/>
<path fill-rule="evenodd" clip-rule="evenodd" d="M29.1667 42.1667H20.8334C12.9766 42.1667 9.04824 42.1667 6.60746 39.7259C4.16669 37.2852 4.16669 33.3568 4.16669 25.5C4.16669 24.5793 4.16669 23.7126 4.17061 22.8959H45.8294C45.8334 23.7126 45.8334 24.5793 45.8334 25.5C45.8334 33.3568 45.8334 37.2852 43.3926 39.7259C40.9518 42.1667 37.0234 42.1667 29.1667 42.1667ZM33.4266 26.0209C34.3283 26.0208 35.155 26.0207 35.8275 26.1111C36.5681 26.2106 37.3509 26.4449 37.9947 27.0887C38.6385 27.7325 38.8727 28.5153 38.9723 29.2559C39.0627 29.9284 39.0626 30.7551 39.0625 31.6568V31.8433C39.0626 32.745 39.0627 33.5717 38.9723 34.2442C38.8727 34.9848 38.6385 35.7676 37.9947 36.4114C37.3509 37.0552 36.5681 37.2894 35.8275 37.389C35.155 37.4794 34.3283 37.4793 33.4266 37.4792L33.3334 37.4792L33.2401 37.4792C32.3384 37.4793 31.5117 37.4794 30.8392 37.389C30.0986 37.2894 29.3158 37.0552 28.672 36.4114C28.0282 35.7676 27.794 34.9848 27.6944 34.2442C27.604 33.5717 27.6041 32.745 27.6042 31.8433L27.6042 31.75L27.6042 31.6568C27.6041 30.7551 27.604 29.9284 27.6944 29.2559C27.794 28.5153 28.0282 27.7325 28.672 27.0887C29.3158 26.4449 30.0986 26.2106 30.8392 26.1111C31.5117 26.0207 32.3384 26.0208 33.2401 26.0209H33.4266ZM10.9375 28.625C10.9375 27.7621 11.6371 27.0625 12.5 27.0625H16.6667C17.5296 27.0625 18.2292 27.7621 18.2292 28.625C18.2292 29.488 17.5296 30.1875 16.6667 30.1875H12.5C11.6371 30.1875 10.9375 29.488 10.9375 28.625ZM10.9375 34.875C10.9375 34.0121 11.6371 33.3125 12.5 33.3125H20.8334C21.6963 33.3125 22.3959 34.0121 22.3959 34.875C22.3959 35.738 21.6963 36.4375 20.8334 36.4375H12.5C11.6371 36.4375 10.9375 35.738 10.9375 34.875Z" fill="white"/>
<path d="M30.8818 29.2983L30.8868 29.2956C30.8909 29.2935 30.8978 29.2901 30.9083 29.2858C30.9537 29.2671 31.0544 29.2353 31.2556 29.2082C31.6946 29.1492 32.3071 29.1459 33.3334 29.1459C34.3596 29.1459 34.9721 29.1492 35.4111 29.2082C35.6123 29.2353 35.7131 29.2671 35.7584 29.2858C35.7689 29.2901 35.7758 29.2935 35.7799 29.2956L35.7849 29.2985L35.7878 29.3035C35.7899 29.3075 35.7933 29.3145 35.7976 29.325C35.8163 29.3703 35.8481 29.4711 35.8752 29.6723C35.9342 30.1113 35.9375 30.7238 35.9375 31.75C35.9375 32.7763 35.9342 33.3888 35.8752 33.8278C35.8481 34.029 35.8163 34.1297 35.7976 34.1751C35.7933 34.1856 35.7899 34.1925 35.7878 34.1966L35.7849 34.2016L35.7799 34.2045C35.7758 34.2066 35.7689 34.21 35.7584 34.2143C35.7131 34.233 35.6123 34.2648 35.4111 34.2919C34.9721 34.3509 34.3596 34.3542 33.3334 34.3542C32.3071 34.3542 31.6946 34.3509 31.2556 34.2919C31.0544 34.2648 30.9537 34.233 30.9083 34.2143C30.8978 34.21 30.8909 34.2066 30.8868 34.2045L30.8818 34.2016L30.8789 34.1966C30.8768 34.1925 30.8734 34.1856 30.8691 34.1751C30.8504 34.1297 30.8186 34.029 30.7915 33.8278C30.7325 33.3888 30.7292 32.7763 30.7292 31.75C30.7292 30.7238 30.7325 30.1113 30.7915 29.6723C30.8186 29.4711 30.8504 29.3703 30.8691 29.325C30.8734 29.3145 30.8768 29.3075 30.8789 29.3035L30.8818 29.2983Z" fill="white"/>
</svg>
