<svg width="20" height="20" viewBox="0 0 20 20" fill="none" xmlns="http://www.w3.org/2000/svg">
<path d="M11.6666 3.33337H8.33329C5.1906 3.33337 3.61925 3.33337 2.64294 4.30968C1.93999 5.01264 1.74316 6.02406 1.68806 7.70837H18.3119C18.2568 6.02406 18.0599 5.01264 17.357 4.30968C16.3807 3.33337 14.8093 3.33337 11.6666 3.33337Z" fill="white"/>
<path fill-rule="evenodd" clip-rule="evenodd" d="M11.6666 16.6667H8.33329C5.1906 16.6667 3.61925 16.6667 2.64294 15.6904C1.66663 14.7141 1.66663 13.1427 1.66663 10C1.66663 9.63176 1.66663 9.28507 1.6682 8.95837H18.3317C18.3333 9.28507 18.3333 9.63176 18.3333 10C18.3333 13.1427 18.3333 14.7141 17.357 15.6904C16.3807 16.6667 14.8093 16.6667 11.6666 16.6667ZM13.3706 10.2084C13.7313 10.2083 14.062 10.2083 14.331 10.2445C14.6272 10.2843 14.9403 10.378 15.1978 10.6355C15.4553 10.893 15.549 11.2061 15.5889 11.5024C15.625 11.7714 15.625 12.1021 15.625 12.4628V12.5373C15.625 12.898 15.625 13.2287 15.5889 13.4977C15.549 13.7939 15.4553 14.1071 15.1978 14.3646C14.9403 14.6221 14.6272 14.7158 14.331 14.7556C14.062 14.7918 13.7313 14.7918 13.3706 14.7917L13.3333 14.7917L13.296 14.7917C12.9353 14.7918 12.6046 14.7918 12.3356 14.7556C12.0394 14.7158 11.7263 14.6221 11.4688 14.3646C11.2112 14.1071 11.1175 13.7939 11.0777 13.4977C11.0415 13.2287 11.0416 12.898 11.0416 12.5373L11.0416 12.5L11.0416 12.4628C11.0416 12.1021 11.0415 11.7714 11.0777 11.5024C11.1175 11.2061 11.2112 10.893 11.4688 10.6355C11.7263 10.378 12.0394 10.2843 12.3356 10.2445C12.6046 10.2083 12.9353 10.2083 13.296 10.2084H13.3706ZM4.37496 11.25C4.37496 10.9049 4.65478 10.625 4.99996 10.625H6.66663C7.0118 10.625 7.29163 10.9049 7.29163 11.25C7.29163 11.5952 7.0118 11.875 6.66663 11.875H4.99996C4.65478 11.875 4.37496 11.5952 4.37496 11.25ZM4.37496 13.75C4.37496 13.4049 4.65478 13.125 4.99996 13.125H8.33329C8.67847 13.125 8.95829 13.4049 8.95829 13.75C8.95829 14.0952 8.67847 14.375 8.33329 14.375H4.99996C4.65478 14.375 4.37496 14.0952 4.37496 13.75Z" fill="white"/>
<path d="M12.3527 11.5193L12.3547 11.5183C12.3563 11.5174 12.3591 11.5161 12.3633 11.5143C12.3814 11.5069 12.4217 11.4941 12.5022 11.4833C12.6778 11.4597 12.9228 11.4584 13.3333 11.4584C13.7438 11.4584 13.9888 11.4597 14.1644 11.4833C14.2449 11.4941 14.2852 11.5069 14.3033 11.5143C14.3075 11.5161 14.3103 11.5174 14.3119 11.5183L14.3139 11.5194L14.3151 11.5214C14.3159 11.523 14.3173 11.5258 14.319 11.53C14.3265 11.5482 14.3392 11.5885 14.35 11.6689C14.3736 11.8445 14.375 12.0895 14.375 12.5C14.375 12.9105 14.3736 13.1556 14.35 13.3312C14.3392 13.4116 14.3265 13.4519 14.319 13.4701C14.3173 13.4743 14.3159 13.477 14.3151 13.4786L14.3139 13.4807L14.3119 13.4818C14.3103 13.4827 14.3075 13.484 14.3033 13.4857C14.2852 13.4932 14.2449 13.506 14.1644 13.5168C13.9888 13.5404 13.7438 13.5417 13.3333 13.5417C12.9228 13.5417 12.6778 13.5404 12.5022 13.5168C12.4217 13.506 12.3814 13.4932 12.3633 13.4857C12.3591 13.484 12.3563 13.4827 12.3547 13.4818L12.3527 13.4807L12.3515 13.4786C12.3507 13.477 12.3493 13.4743 12.3476 13.4701C12.3401 13.4519 12.3274 13.4116 12.3166 13.3312C12.293 13.1556 12.2916 12.9105 12.2916 12.5C12.2916 12.0895 12.293 11.8445 12.3166 11.6689C12.3274 11.5885 12.3401 11.5482 12.3476 11.53C12.3493 11.5258 12.3507 11.523 12.3515 11.5214L12.3527 11.5193Z" fill="white"/>
</svg>
