<svg width="14" height="14" viewBox="0 0 14 14" fill="none" xmlns="http://www.w3.org/2000/svg">
<path d="M7.00004 7.00004C6.08337 7.00004 5.29865 6.67365 4.64587 6.02087C3.9931 5.3681 3.66671 4.58337 3.66671 3.66671C3.66671 2.75004 3.9931 1.96532 4.64587 1.31254C5.29865 0.659763 6.08337 0.333374 7.00004 0.333374C7.91671 0.333374 8.70143 0.659763 9.35421 1.31254C10.007 1.96532 10.3334 2.75004 10.3334 3.66671C10.3334 4.58337 10.007 5.3681 9.35421 6.02087C8.70143 6.67365 7.91671 7.00004 7.00004 7.00004ZM0.333374 12V11.3334C0.333374 10.8612 0.455041 10.4273 0.698374 10.0317C0.941708 9.63615 1.26449 9.33393 1.66671 9.12504C2.52782 8.69449 3.40282 8.37171 4.29171 8.15671C5.1806 7.94171 6.08337 7.83393 7.00004 7.83337C7.91671 7.83282 8.81949 7.9406 9.70837 8.15671C10.5973 8.37282 11.4723 8.6956 12.3334 9.12504C12.7362 9.33337 13.0592 9.6356 13.3025 10.0317C13.5459 10.4278 13.6673 10.8617 13.6667 11.3334V12C13.6667 12.4584 13.5037 12.8509 13.1775 13.1775C12.8514 13.5042 12.4589 13.6673 12 13.6667H2.00004C1.54171 13.6667 1.14949 13.5037 0.823374 13.1775C0.497263 12.8514 0.33393 12.4589 0.333374 12Z" fill="#F8F8F8"/>
</svg>
