<svg width="132" height="91" viewBox="0 0 132 91" fill="none" xmlns="http://www.w3.org/2000/svg">
<path d="M129.087 14.25C128.33 11.4956 126.853 8.98458 124.803 6.9669C122.753 4.94922 120.202 3.49532 117.404 2.75C107.161 0 65.9332 0 65.9332 0C65.9332 0 24.7055 0.0833333 14.4621 2.83333C11.664 3.57866 9.11306 5.03255 7.06334 7.05023C5.01363 9.06791 3.53665 11.579 2.77949 14.3333C-0.318937 32.25 -1.52106 59.55 2.86415 76.75C3.6213 79.5044 5.09828 82.0154 7.148 84.0331C9.19771 86.0508 11.7486 87.5047 14.5467 88.25C24.7902 91 66.0179 91 66.0179 91C66.0179 91 107.246 91 117.489 88.25C120.287 87.5047 122.838 86.0508 124.888 84.0331C126.937 82.0154 128.414 79.5044 129.172 76.75C132.439 58.8083 133.447 31.525 129.087 14.25Z" fill="#FF0000"/>
<path d="M52.8105 65.0003L87.0118 45.5002L52.8105 26.0002V65.0003Z" fill="white"/>
</svg>
